<svg width="35" height="25" xmlns="http://www.w3.org/2000/svg"><g fill="#DADBDC" fill-rule="evenodd"><path d="M1.647 0h31.346c.91 0 1.647.737 1.647 1.647V23.04c0 .91-.737 1.647-1.647 1.647H1.647C.737 24.687 0 23.949 0 23.04V1.647C0 .737.737 0 1.647 0zm0 1.647V23.04h31.346V1.647H1.647z" fill-rule="nonzero"/><path d="M6.652 20.147h19.882c1.287 0 1.91-1.688.955-2.596l-4.981-4.674c-.54-.476-1.287-.52-1.826-.043l-1.495 1.255c-.58.476-1.41.432-1.909-.13l-2.822-3.03c-.54-.562-1.412-.605-1.993-.043l-6.807 6.665c-.913.952-.29 2.596.996 2.596z"/><ellipse cx="25.385" cy="7.141" rx="2.566" ry="2.601"/></g></svg>